<?xml version="1.0" encoding="utf-8"?>
<!-- Generator: Adobe Illustrator 23.0.2, SVG Export Plug-In . SVG Version: 6.00 Build 0)  -->
<svg version="1.1" id="Layer_1" xmlns="http://www.w3.org/2000/svg" xmlns:xlink="http://www.w3.org/1999/xlink" x="0px" y="0px"
	 viewBox="0 0 612 792" style="enable-background:new 0 0 612 792;" xml:space="preserve">
<style type="text/css">
	.st0{fill:#FFFFFF;}
	.st1{fill:#BE2B31;}
</style>
<path d="M305.84,324.26c0.99,1.11,2.08,2.12,3.17,3.13c0.3,0.5,0.09,1.2-0.31,1.6c-0.03,3.5-0.26,7-1.49,9.99
	c-0.31,0.7-0.91,1.39-1.52,1.89c-0.2,0.3-0.01,0.8,0.19,1.1c1.89,1.42,4.08,2.04,6.07,3.15c1.49,0.81,3.49,1.53,4.07,3.44
	c-0.01,1.6,0.27,3.3,1.86,4.02c0.3,0.1,0.5,0.5,0.29,0.8c-0.1,0.4-0.41,0.6-0.7,0.39c-1.39-0.91-2.78-2.32-4.59-1.74
	c-0.7,0.39-1.61,1.09-1.92,1.98c-0.1,0.5,0.19,1,0.59,1.21c0.4,0.3,1.2-0.19,1.1,0.41c-0.11,1.4,0.48,2.5,1.07,3.61
	c1.09,0.81,0.78,2.41,2.07,2.92c0.9,0.31,1.11-0.69,1.41-1.19c0.41-1.1,0.72-2.19,0.93-3.49c0.3-0.1,0.5,0.2,0.6,0.4
	c0.29,0.8,0.08,1.8-0.22,2.5c-1.23,3.29-2.56,6.68-4.09,9.76c-0.11,0.6-0.21,1.2,0.19,1.6l0.5,0.2c0.19,1.1,0.28,2.2,0.17,3.3
	c-0.2,0.1-0.6,0.39-0.41,0.8c0.4,0.3,1.1,0.01,1.6-0.19c1.31-0.59,2.61-1.18,4.01-1.67l9.94-4.61c2.52-2.18,5.63-2.85,8.63-3.73
	l4.31-0.86c4.5,0.24,7.33-3.84,10.75-6.11c2.31-1.48,4.53-3.36,7.14-4.24c1.7,0.02,2.99,1.33,4.38,2.34
	c0.21-1.3,0.72-2.79,1.83-3.58c2.99,0.83,5.8-0.25,8.41-1.43c-0.61,1.19-0.72,2.49-0.63,3.89c-0.51,1.1-1.52,2.09-2.52,2.88
	c0.1,0.5-0.11,0.9-0.41,1.2c0.79,1.71,2.37,3.72,4.57,3.74l0.3-0.4c0.52-2.2,0.54-4.9,3.05-5.87c0.2-0.4,0.11-1,0.71-1.39l0.01-1.5
	c2.01-1.28,2.43-3.68,4.44-4.96c0.2-0.2,0.1-0.5,0.21-0.8c0.5-0.3,1.31-0.59,1.51-1.29c0-0.3,0.11-0.9-0.39-1
	c-0.7,0.49-1.41,1.19-2.21,1.68c-2.31,1.48-4.73,2.96-7.43,3.44l0-0.2c4.32-2.06,8.34-5.13,12.47-7.59c1.81-0.68,4.32-1.96,6-0.35
	c0.89,1.31,1.47,3.01,0.86,4.51c-2.24,4.08-4.17,8.46-8.2,11.43c-0.11,1.1-1.21,1.59-2.02,2.18c-0.2,0.3-0.61,0.59-0.31,1
	c-0.91,1.19-2.02,2.68-3.43,3.27c-3.61,1.57-6.59-1.36-10.09-0.99c-0.5,0.3-1.2,0.49-1.41,0.99c0.69,1.21,1.08,2.81,0.56,4.21
	c-0.91,1.69-2.82,1.88-4.22,2.56c-3.61,1.07-7.71,0.83-11.02,2.4c-3.21,1.17-6.32,2.75-9.54,4.02c-3.51,1.17-7.22,2.14-10.83,3.21
	l-1.61,0.99l-1.6,0.29l-14.98,8.57c-1.41,0.99-2.42,2.68-4.23,3.06c-3.61,0.87-8.39-0.67-10.53,3.01c-0.21,0.9-0.52,1.9-1.22,2.59
	c-0.5-0.2-0.19-0.9-0.29-1.4c0.22-2.8,0.85-5.59,2.37-7.98c2.22-2.78,3.75-5.87,4.58-9.26c0.01-0.7,0.01-1.6-0.78-1.91
	c-1-0.21-2-0.02-2.61,0.78c-0.51,0.6-0.61,1.39-0.72,2.19l-0.1,0c-0.39-0.9-0.38-2.1-1.28-2.81c-0.5-0.1-0.9,0.39-1.11,0.79
	c-2.14,4.28-2.88,9.18-3.32,14.17c-2.72,2.58-2.66,6.48-3.09,10.17c-0.31,0.8-0.42,1.9-1.52,2.19c-0.1,0-0.4,0.2-0.6,0
	c0.1-0.6,0.51-1.2,0.72-1.79c0.72-2.19,1.04-4.59,1.46-6.89c0.41-0.7,1.41-1.19,1.22-2.29c0.1-0.5-0.19-1-0.69-1.21
	c-0.8-0.51-2.31,0.58-2.29-0.82c-0.99-0.61-2.49-1.22-3.6-0.53l-0.41,0.7c-0.15,5.2-0.6,11.2,0.46,16.2
	c0.09,0.6,0.69,1.01,1.19,1.11c0.3,0.1,0.5-0.2,0.7-0.39c0.5,0.4,0.59,1.5,0.28,2.1c-0.1,0.4-0.5,0.5-0.81,0.79
	c0.5,0.3,1.4,0.41,2,0.12c0.7-0.49,0.61-1.29,0.72-1.99c0.9-0.39,1.91-0.78,2.52-1.68c0.81-0.69,0.82-1.99,0.73-3.09
	c-0.4-0.3,0.11-0.7,0.21-1c0.31-0.6,0.81-1.29,1.51-1.49l0.7,0.01l0.51-1c6.6,0.06,13.3-0.08,19.9-0.33l0.3,0.3l8.67,26.28l0.1,0.1
	l0.41-0.8l8.24-27.63c5.51-0.75,10.91-1.31,16.22-2.26c3.11-0.57,6.01-1.25,9.02-2.02c0.08,2.8,0.05,5.7,0.02,8.6
	c-1.2,0.49-2.7,0.18-3.9,0.47c-0.7,0.19-1.5,0.29-2.01,0.88l-0.51,1.5l-0.05,17.7l0,22.5c-0.01,0.8,0.79,1.41,1.49,1.61
	c1.6,0.41,3.19,0.73,4.79,0.64l0.09,1.3l-0.06,7.3c-9.18-1.88-18.67-3.06-28.27-4.15l-0.1-0.5l0.07-7.8c2-0.08,4.3-0.06,6.01-1.15
	c0.61-0.79,0.62-1.89,0.73-2.99l-0.04-18.7l-0.1-0.1l-0.41,0.9l-9.36,29.52l-0.2,0.3l-9.49-0.78c-2.34-6.82-4.58-13.84-6.72-20.76
	c-1.18-2.41-1.65-5.21-2.73-7.72l-0.1,0.3l-0.05,16.8c0.09,0.8,0.29,1.7,1.18,2.01c1.6,0.51,3.29,0.83,5.09,0.74
	c-0.03,2.9,0.15,5.6-0.07,8.5c-7.19-0.66-14.5-0.53-21.8-0.39l-0.1-0.4l0.07-7.9c1.7-0.39,3.7-0.17,5.11-1.16
	c0.61-0.69,0.61-1.5,0.72-2.39l0.05-17.1l-0.11-10.4c-0.09-0.7-0.39-1.5-1.18-1.81c-1-0.41-2.3-0.42-3.4-0.53
	c-0.3,0.2,0.09,0.6,0.19,0.8c0.5,0.4,0.69,1.21,0.38,1.7c-1.42,2.29-4.22,2.36-6.72,2.24c-1.5-0.11-2.58-1.82-3.07-3.13
	c-0.29-1.3,0.42-2.3,0.53-3.5c-0.16-4.9-0.11-10.2-1.27-14.81c-1.26-4.31-5.95-5.15-9.24-6.98c-4.78-2.04-9.67-3.88-14.85-5.23
	c-6.19-1.55-12.17-3.71-18.25-5.46c-3.89-1.03-7.89-1.67-11.98-2.1c-1.8-0.12-3.7-0.43-4.58-2.14c-1.09-1.11-0.58-2.8-0.76-4.11
	c-0.19-1.3,0.02-2.9-1.27-3.61c-1.5,0.19-2.61,1.18-4.02,1.67c-2.5,0.28-5.5,0.45-7.08-1.76c-2.47-3.52-4.34-7.34-7.41-10.46
	c-0.98-2.21-1.55-5.21-0.53-7.5c0-0.5,0.51-0.7,0.91-0.79c0.7-0.09,1.5-0.09,2.1,0.22c4.48,2.74,8.85,5.58,13.94,6.72
	c2,0.42,3.9-0.17,5.8-0.15c0.29,1.5-0.23,3,0.56,4.31l0.4,0c0.81-0.99,1.42-2.29,2.63-2.88c1.4-0.29,2.81-0.58,3.9,0.13l0.99,0.71
	l0.29,0.8l2.38,1.82c3.68,1.83,7.68,2.87,10.95,5.5c3.58,1.83,7.68,2.57,11.67,3.4l10.35,5.89c3.19,1.13,6.68,1.86,10.18,2.09
	c0.01-0.7-0.49-1.3-0.78-2.01c-0.98-1.91-1.97-3.92-2.65-6.12l-0.48-2.7c-0.88-1.91-2.27-3.62-2.25-5.82l-0.07-3.2
	c1.95-5.28,7.38-9.04,12.1-11.6c1.31-0.59,2.71-0.98,3.82-2.07c0.41-1-0.28-1.9-0.78-2.61c-0.38-2.3-1.36-4.41-2.04-6.62
	c-0.38-2.7-0.35-5.7,0.27-8.4c0.41-1.5,2.12-2.38,3.23-3.37c2.21-1.38,5.13-3.06,7.61-1.23
	C304.27,321.75,304.75,323.15,305.84,324.26z"/>
<path class="st0" d="M302.12,326.93c-0.91,1.19-2.32,1.98-3.82,1.77c-0.2-0.2-0.1-0.5,0.11-0.7c0.91-0.59,1.91-1.08,3.01-1.37
	C301.72,326.63,302.02,326.63,302.12,326.93z"/>
<path class="st0" d="M304.51,328.55c0,0.4-0.11,0.7-0.41,0.8c-0.3,0-0.7-0.21-0.6-0.5c0-0.3,0.11-0.6,0.41-0.6
	C304.21,328.15,304.41,328.35,304.51,328.55z"/>
<path class="st0" d="M299.89,330.21c-0.21,0.7-0.71,1.29-1.31,1.69c-0.3,0.2-0.7-0.01-0.8-0.31c0.11-0.7,0.21-1.6,1.02-1.89
	C299.19,329.81,299.69,329.81,299.89,330.21z"/>
<path class="st0" d="M304.78,331.55c0.79,1.01,0.68,2.61,0.07,3.6c-0.01,0.7,0.19,1.4,0.38,2.1c-0.09-0.7-0.09-1.6,0.62-2
	c0.5-0.3,1-0.09,1.4,0.21c0.4,0.4,0.59,1,0.49,1.5c-0.1,0.5-0.41,0.9-0.81,0.99c-0.5,0.2-1-0.01-1.3-0.31l-0.3-0.4
	c0,0.5-0.31,1-0.71,1.29c-0.3,0.4-1,0.09-1.4-0.11c-0.5-0.2-0.99-0.61-1.39-1.11c-0.6-0.11-0.41,0.8-0.71,1.09
	c-0.31,0.6-1.01,0.59-1.5,0.49c-0.6-0.21-1.29-0.61-1.49-1.31c-0.1-0.5-0.09-1.2,0.21-1.6c0.4-0.4,1-0.49,1.6-0.29l0.5,0.5
	c0.5,0,1.1,0.01,1.4-0.39c0.01-1-1.29-0.91-1.18-1.91c-0.5,0.4-1.01,1.29-1.81,0.78c-0.3-0.2-0.7-0.51-0.69-0.91
	c0.31-0.8,1.2-0.49,1.81-0.68c-0.4-0.3-0.69-0.71-0.69-1.21c0.2-0.4,0.8-0.29,1.2-0.19c0.3,0.3,0.29,0.9,0.09,1.3
	c-0.3,0.2,0.2,0.4,0.19,0.6c0.61-1,0.52-2.8,2.13-2.98C303.69,330.64,304.38,330.95,304.78,331.55z"/>
<path class="st0" d="M305.3,340.16c0.59,1.41-0.22,2.8-1.13,3.89c-0.11,1.2,0.48,2.4,0.37,3.7c-0.2,0.2-0.5,0.3-0.7,0.19
	c-0.79-0.91-1.18-1.91-1.98-2.72c-0.29-1.1,0.92-1.69,1.12-2.69c0.41-1,1.02-1.99,1.73-2.88
	C305.01,339.56,305.31,339.86,305.3,340.16z"/>
<path class="st0" d="M388.03,349.28l-0.21,0.8c-1,0.49-0.11,1.6-0.52,2.5l-0.84,4.39c-0.2,0.4-0.51,0.8-0.91,0.79
	c-1-0.21-1.59-1.41-2.48-1.82c-0.5-0.3-0.39-1-0.29-1.5c0.41-1.4,1.02-2.69,2.03-3.68l0.91-0.89c-0.1-0.4,0.11-0.7,0.31-0.9
	c0.3-0.2,0.5,0.2,0.8,0.31C387.13,349.07,388.14,348.18,388.03,349.28z"/>
<path class="st0" d="M304.72,349.45c-0.51,0.6,0.08,1.8-0.52,2.3c-0.6-0.11-1.09-0.61-1.29-1.11c0.01-0.7,0.41-1.4,1.12-1.69
	C304.33,348.85,304.63,349.15,304.72,349.45z"/>
<path class="st0" d="M314.52,350.34c-0.11,0.6-0.81,0.99-1.31,1.29c-0.4,0.2-0.7,0.19-1.1-0.11c-0.4-0.3-0.09-0.8,0.11-1.2
	c0.2-0.3,0.31-0.7,0.71-0.79C313.73,349.23,313.92,350.23,314.52,350.34z"/>
<path class="st0" d="M296.71,350.68c0.19,0.7-0.31,1.5,0.18,2.2c0.5-0.1,1.1-0.39,1.5,0.01c0.3,0.2,0.19,0.6,0.5,0.5
	c0.5-0.1,1.1,0.01,1.5,0.31c0.4,0.4,0.59,1.01,0.29,1.5c-0.61,1.29-1.92,2.18-3.32,2.47c-0.6,0.09-1.2-0.11-1.49-0.61
	c-0.78-1.91-2.16-4.52-0.34-6.4C295.82,350.38,296.52,350.08,296.71,350.68z"/>
<path class="st0" d="M303.38,354.34c0.2,0.3-0.1,0.5-0.3,0.4c-0.5-0.1-1-0.41-1.09-0.91C302.29,353.03,303.18,353.94,303.38,354.34z
	"/>
<path class="st0" d="M373.98,355.06c0.29,1.3-0.12,2.7-1.23,3.49c-0.3,0.1-0.5,0.3-0.8,0.29c-0.39-0.8-0.09-1.7,0.12-2.4
	c0.21-0.6,0.41-1.5,1.12-1.79C373.48,354.55,373.88,354.76,373.98,355.06z"/>
<path class="st0" d="M220.37,355.02c0.19,0.9,0.68,1.81,0.78,2.81c0.1,0.3,0.4,0.2,0.6,0.11c0.3-0.3,0.11-1.1,0.71-0.99
	c0.8,0.01,1.5,0.61,1.79,1.32c0.88,1.81,3.27,3.53,1.95,5.82c-0.51,0.6-1.11,1.39-1.91,1.38c-0.6,0.09-1.2-0.41-1.49-1.01
	c-0.79-1.01,0.02-2.8-1.37-3.41c-1-0.41-2.19-0.62-2.58-1.72c0.11-0.8,0.01-1.4-0.18-2.1c-0.29-0.6-1.39-1.01-1.08-1.81
	c0.31-0.8,1.21-1.29,1.91-1.48C220.08,353.92,220.28,354.52,220.37,355.02z"/>
<path class="st0" d="M302.97,355.54c0,0.2-0.3,0.3-0.5,0.5c-0.1,0.4,0.09,1.1-0.41,1.2c-0.4-0.1-0.6-0.51-0.69-0.91
	c0-0.5,0.11-1,0.61-1.29C302.38,354.93,302.98,354.94,302.97,355.54z"/>
<path class="st0" d="M217.34,358.19c0,0.5-0.01,1.1-0.61,1.19c0,0.4,0.19,1-0.31,1.1c-0.3,0.1-0.6-0.21-0.6-0.51
	c0-0.4-0.19-0.7-0.59-0.81c-0.1-0.5-0.39-1.1-0.08-1.7c0.2-0.4,0.6-0.29,1-0.39c0.1-0.2,0.21-0.7,0.51-0.6
	C217.46,356.59,217.15,357.59,217.34,358.19z"/>
<path class="st0" d="M312.19,365.22c0.59,1.61-0.82,2.79-1.04,4.29c-0.11,0.7,0.09,1.6-0.52,2.1c-0.4,0.3-0.9-0.01-1.2-0.31
	c-0.29-0.7-1.21,0.59-1.5-0.41c-0.08-1.9,0.93-3.69,2.54-4.88c0.4-0.4-0.09-1.2,0.61-1.39
	C311.59,364.51,311.89,364.92,312.19,365.22z"/>
<path class="st0" d="M253.97,366.31l0.2,0.1L253.97,366.31z"/>
<path class="st0" d="M289.23,371.82l-0.51,1.2c0.2,0.2,0.6-0.09,0.8,0.11l0.69,1.31c0.39,0.9,1.79,1.52,1.48,2.71
	c-0.1,0.4-0.41,0.8-0.81,0.89c-0.4,0.1-0.8-0.31-0.99-0.71l-1.08-2.81l-1.1-0.21l0.21-0.6c-1.39-0.61-0.48-2.2-0.47-3.2
	c-0.39-1-1.38-2.21-0.57-3.41C288.36,368.21,289.34,369.92,289.23,371.82z"/>
<path class="st0" d="M314.36,368.24c-0.21,1.5-0.62,2.79-1.43,3.99c-0.4,0.3-0.81,0.59-1.3,0.49c-0.19-0.6-0.09-1.4,0.12-2.1
	c0.41-1.1,1.32-2.39,2.62-2.58L314.36,368.24z"/>
<path class="st0" d="M325.9,375.64c-0.61,0.89-1.61,1.59-2.22,2.48c-1.01,1.49-1.73,3.58-3.74,4.37c-0.5,0.1-0.9-0.31-0.89-0.71
	l0.11-0.6c1.72-1.99,2.95-5.37,5.85-5.85C325.3,375.33,325.8,375.24,325.9,375.64z"/>
<path class="st0" d="M320.88,378c-0.21,1.2-1.51,1.69-2.32,2.38c-1.01,1.39-2.13,3.28-4.03,3.46c-0.71,0.69,0.69,1.71-0.62,1.9
	c-0.9-0.61-0.98-1.81-1.18-2.81c0-0.5,0.51-0.7,0.91-0.79c0.3-0.2,0.4,0.5,0.6,0.11c0.81-1.09,1.62-2.19,2.83-2.88l1.91-0.68
	C319.48,378.08,320.28,377.39,320.88,378z"/>
<path class="st0" d="M311.47,379.11c0.19,0.6-0.11,1.2-0.12,1.8l0.9-0.19l0.31-1.2c0.4-0.1,0.7,0.31,0.79,0.61
	c0.19,1.2-0.72,2.09-1.52,2.69c-0.6,0.29-1.3,0.39-1.9,0.18c-0.1-0.4,0.51-0.7,0.21-1c-0.4,0-0.8-0.21-0.89-0.61
	c-0.2-0.4-0.09-0.9,0.01-1.3C309.96,379.7,310.58,377.51,311.47,379.11z"/>
<path class="st0" d="M290.95,380.44c0.6-0.19,0.41-1.5,1.21-0.89c0.7,0.41,1.49,1.21,1.68,2.01c0.29,1.2-1.22,1.89-0.33,2.9
	c1.19,1.41,0.37,3.3,0.06,4.9c-0.71,1.19,0.98,2.11,0.27,3.2c-0.8,0.39-1.7,0.39-2.41,1.08c-0.5,0.1-0.9-0.51-1.09-0.91
	c-0.48-1.8-0.57-3.81-1.65-5.41l-1.19-1.51c-0.6-0.41-1.29-0.91-1.18-1.81l0.94-4.09c0.1-0.4,0.31-0.9,0.81-0.99
	C289.16,379.22,289.75,381.02,290.95,380.44z"/>
<path class="st0" d="M266.54,381.42c1.3,0.01,2.8-0.28,3.59,0.83c0,0.3,0.39,0.9-0.11,1.1c-1.99-0.62-4.5,0.06-6.29-1.15
	c-1.2-0.11-2.2-0.32-3.19-0.63c-0.3-0.1-0.1-0.4,0-0.5c1.11-0.79,2.6-0.28,3.9-0.17L266.54,381.42z"/>
<path d="M405.12,384.83c3.73,7.53,7.27,15.16,10.9,22.8c-2.21,1.28-4.52,2.26-6.83,3.34l-0.3-0.1c-4.04-6.64-10.8-11.19-18.81-10.46
	c-1.3,0.19-2.5,0.18-3.51,0.87c-0.61,1.69-0.43,3.6-0.35,5.5l0.56,16.61l0.2,0.1c1.9-0.08,4.3,0.54,5.41-1.15
	c0.82-1.89,0.74-4.09,0.86-6.29l0.4-0.1l7.7,0.17l0.09,23.9l-0.1,0.2c-2.6,0.08-5.3,0.05-8,0.03c-0.38-2.4-0.46-4.8-2.04-6.72
	c-1.19-0.81-2.89-0.83-4.39-0.74l-0.1,0.3l-0.01,23.8c0.09,0.7-0.01,1.7,0.98,1.81c3.89,0.63,8.2,0.17,11.71-1.3
	c4.92-1.96,8.96-6.82,12-11.1l7.07,3.36l0.1,0.2c-3.97,8.37-8.24,16.53-12.22,24.99l-0.1,0.1c-9.56-4.28-19.33-8.17-29.4-11.06
	c-3.69-0.83-7.29-1.76-10.98-2.5l-0.03-8c1.91-0.58,4.5-0.16,5.32-2.15l0.32-2.1l-0.06-39.2c-0.09-1-0.28-2-1.08-2.71
	c-1.39-1.11-3.39-0.93-4.99-1.34l-0.1-0.3l0.07-7.7C379.03,394.6,392.37,390.42,405.12,384.83z"/>
<path d="M235.19,398.35l7.95,16.77c0.1,0.2,0.09,0.6-0.21,0.6l-6.83,3.14c-4.65-6.04-10.38-14.09-18.68-14.26
	c-1.5-0.01-3.1,0.27-3.72,1.77c-0.51,1.4-0.73,2.99-0.74,4.59l0.09,13.1c1.1,0.41,2.3,0.12,3.4,0.03c1.9-0.28,2.22-2.38,2.63-3.88
	l0.53-3.5l0.8,0.01l6.8-0.04l0.1,0.2l-0.02,25c-2.6,0.08-5.2,0.15-7.8,0.03c-0.38-2.2-0.36-4.7-1.34-6.71
	c-1.09-1.51-3.09-1.43-4.89-1.44l-0.3,0.2l0.03,20c0.19,0.8,0.18,1.9,1.18,2.31c1.1,0.51,2.29,0.62,3.49,0.73l9.72-2.62
	c0.18,2.6,0.05,5.7,0.03,8.2c-12.23,3.49-24.07,7.79-35.52,13.19l-0.2-0.1l0.08-8.8l0.1-0.1c1.2-0.09,2.4-0.18,3.11-1.17
	c2.63-3.38,2.57-7.88,2.81-12.28l-0.02-44.1c-0.25-5.5-0.41-10.9-2.86-15.53c-0.59-1.1-1.79-1.52-3.09-1.53
	c-0.07-2.9-0.15-6.1-0.02-9.1C205.47,390.09,220.13,394.72,235.19,398.35z"/>
<path class="st1" d="M403.79,388.52c2.95,5.83,5.7,11.85,8.55,17.78c-0.7,0.49-1.61,0.79-2.41,1.18
	c-4.45-6.04-10.81-10.19-18.51-9.86c-2.8,0.08-5.9-0.15-7.42,2.44c-0.61,1.49-0.63,3.29-0.65,5.19l0.72,20.91l0.3,0.2
	c3.7-0.27,8.49,1.07,10.52-2.71c0.71-1.49,0.83-3.19,1.04-4.79c0.8-0.19,1.7-0.09,2.6-0.08l0.1,0.3l0.04,18.2l-0.2,0.1l-2.6-0.02
	c-0.78-2.71-1.64-6.31-4.94-7.04c-2.2-0.52-4.5-0.34-6.8-0.26l-0.1,0.3l0.06,27.1c0.09,1,0.18,2.1,0.98,2.81
	c2.78,2.22,6.99,1.36,10.39,1.09c6.81-0.74,12.75-5.59,16.8-11.45c0.9,0.01,1.79,0.72,2.59,1.12c-2.96,6.87-6.62,13.34-9.78,20.12
	l-0.4,0c-5.88-2.65-11.96-5-18.04-7.16l-1.1-0.21c-5.48-1.85-11.07-3.4-16.86-4.75l0.03-3.2c1.9-0.38,3.91-0.97,4.92-2.76
	c0.61-1.39,0.73-3.19,0.64-4.79l0.04-38.8c-0.18-1.9-0.97-3.71-2.56-4.72c-1.09-0.71-2.29-0.92-3.49-1.23
	c-0.19-1.1-0.18-2.1-0.07-3.3c12.03-3.2,23.96-6.69,35.3-11.69L403.79,388.52z"/>
<path class="st1" d="M233.27,400.83c2.16,4.32,4.22,8.84,6.28,13.26c-0.71,0.59-1.61,0.89-2.41,1.28l-0.3-0.1
	c-5.24-6.95-12.07-14.51-21.48-13.29c-1.7,0.39-3.41,1.37-4.13,3.06c-0.71,1.49-0.83,3.09-0.94,4.79l0.05,17.2
	c3-0.07,6.49,0.66,8.91-1.02c1.91-1.68,2.34-4.18,2.86-6.48c0.8-0.09,1.6-0.19,2.4-0.08l0.09,0.7l-0.17,19
	c-0.8-0.01-1.7,0.08-2.5-0.12c-0.48-2.7-0.75-5.91-3.54-7.13c-2.39-1.12-5.39-0.85-7.99-0.77l-0.1,0.4l0,22.6
	c0.19,1.7,0.67,3.61,2.36,4.42c1.69,0.91,3.79,1.33,5.79,1.05c2-0.48,4.11-1.16,6.11-1.55c0.19,0.8,0.18,1.8,0.08,2.6l-6.32,1.84
	c-4.21,1.26-8.22,2.73-12.24,4.19l-11.54,4.7l0.02-2.1c1.21-0.59,2.51-1.58,3.22-2.77c2.74-4.28,2.69-9.88,2.73-15.18l-0.02-43.2
	c-0.25-5.4-0.5-10.9-2.96-15.53c-0.69-1.11-1.58-2.21-2.78-2.72l-0.2-0.4c0.01-0.6-0.09-1.3,0.12-1.8
	C206.94,393.4,220,397.42,233.27,400.83z"/>
<path class="st1" d="M360.47,401.84c0.19,0.8,0.08,1.7-0.02,2.4c-2.1,0.38-4.4,0.46-5.62,2.65c-0.71,1.49-0.73,3.39-0.75,5.19
	l-0.02,13.2l-0.01,24c0.09,1.6,0.57,3.5,2.16,4.32c1.29,0.61,2.69,0.92,4.09,1.14c0.29,0.7,0.09,1.6,0.18,2.4l-0.2,0.2
	c-7.39-1.46-15.08-2.43-22.67-3.4c-0.09-1-0.08-2,0.03-3c2.5-0.38,5.71-1.05,6.33-3.94l0.32-2.1l0.06-29.3
	c-0.8-0.41-1.7-0.42-2.5-0.52l-0.3,0.2l-12.03,37.7c-1.8-0.02-3.7-0.13-5.4-0.35l-0.78-2.11l-11.01-33.7
	c-0.9-0.01-1.8,0.18-2.6,0.38l-0.11,1.7l0.08,25.6c0.19,1.5,1.07,3.21,2.67,3.82c1,0.51,2.29,0.62,3.39,0.93
	c0.29,0.9,0.08,1.8,0.08,2.7l-0.6,0.09c-5.2-0.25-10.5-0.29-15.6-0.24c-0.19-0.9-0.08-1.9-0.08-2.8c0.7-0.39,1.6-0.39,2.41-0.68
	c1.5-0.49,2.92-1.87,3.23-3.47l0.23-3.9l-0.08-25.4c-0.08-1.7-0.67-3.41-2.36-4.32c-1-0.51-2.19-0.82-3.39-0.93
	c-0.09-0.9-0.08-2,0.03-2.9l0.6-0.09c6.2-0.05,12,0,18.1-0.24l0.3,0.5l10.82,32.5l0,0.1l0.2-0.1l10.61-35.01
	c2.21-0.58,4.7-0.36,6.81-0.84C351.55,403.56,356.06,402.8,360.47,401.84z"/>
<path d="M271.25,403.46l2.06,4.92l13.7,34.82c1.08,2.61,4.18,2.14,6.27,3.25c0.08,2.7,0.05,5.4,0.03,8.3l-0.8,0.09
	c-9.3,0.02-18.41,0.94-27.61,1.46l-0.03-8.5c1.71-0.58,3.7-0.37,5.51-0.75c0.6-0.09,1.31-0.69,0.91-1.39
	c-0.77-3.01-1.95-5.72-2.92-8.63l-0.2-0.2l-13.1,0.09l-0.3,0.4l-3.59,9.77c0,0.5-0.01,1.1,0.59,1.31c1.2,0.31,2.5,0.42,3.69,0.63
	c0.18,2.8,0.15,5.5,0.13,8.4c-4.51,0.96-9.11,1.52-13.62,2.38c-3.71,0.57-7.21,1.54-10.82,2.11l-0.03-8.6
	c0.9-0.39,2.1-0.38,3.11-0.67c3.3-0.37,5.13-3.86,6.16-6.55l5.21-12.86l12.67-31.29l0.2-0.1
	C262.66,402.59,266.96,402.93,271.25,403.46z"/>
<path class="st1" d="M284.6,444.48c0.98,2.41,3.57,3.53,5.86,4.05c0.19,1,0.08,2.3,0.07,3.4l-0.3,0.2
	c-7.7,0.13-15.01,0.77-22.51,1.2c-0.09-1-0.08-2-0.07-3c2.1-0.48,4.5-0.36,6.02-2.25c0.51-0.7,0.61-1.69,0.42-2.6
	c-1.07-3.91-2.43-7.62-3.8-11.33l-17.1-0.05l-0.41,0.8l-4.2,11.16c-0.31,1.5-0.13,3.1,0.86,4.11c0.89,0.91,2.09,1.12,3.29,1.33
	c0.19,1.1,0.08,2.5,0.07,3.6c-6.21,1.15-12.52,2.19-18.73,3.44l-0.2-0.2l0.02-2.7c3.1-0.47,6.12-2.45,7.65-5.43l1.63-3.59
	l16.86-41.65l0.1,0l9.19,1.08L284.6,444.48z"/>
<path d="M268.82,430.54c-4.7,0.16-9.6,0.02-14.4-0.03l0.1-0.4l7.16-18.84l0.1,0C264.23,417.6,266.57,424.02,268.82,430.54z"/>
<path class="st0" d="M264.74,427.81l-6.2-0.05l0.21-1c1.02-2.49,1.84-5.08,2.96-7.47l3.13,8.33L264.74,427.81z"/>
<path d="M313.47,459.43c0.79,1.01,0.58,2.41,0.67,3.71c-0.4,0.2-1.1,0.19-1.5,0.09c-0.29-1,0.22-2.4-0.67-3.01
	c-0.5-0.1-0.8,0.29-0.91,0.69l0.19,1.5c0.97,3.71,2.54,7.22,3.1,11.13c-0.01,0.7-0.21,1.4-0.82,1.89c-0.81,0.69-2.11,0.68-2.9,0.17
	c-1.39-1.01-0.98-2.71-1.06-4.31c0.4-0.2,1-0.19,1.5-0.09c0.29,1-0.32,2.6,0.77,3.21c0.4,0.2,0.7-0.19,0.9-0.49
	c0.02-2.1-0.97-3.91-1.45-5.81c-0.68-2.41-1.76-4.72-1.84-7.32c0.21-0.7,0.51-1.5,1.32-1.89
	C311.57,458.52,312.87,458.63,313.47,459.43z"/>
<path d="M300.57,458.82c0.06,4.8,0.01,10.3-0.03,15.3c-0.11,0.7-0.51,1.4-1.12,1.69c-0.8,0.19-1.7,0.29-2.4-0.12
	c-1.69-1.11-0.87-3.41-1.05-5.31l0.1-11.6c0.5-0.1,1.1-0.09,1.6,0.01l0.09,1.2l0.08,14c0,0.2,0.3,0.5,0.6,0.41
	c0.3,0,0.6-0.29,0.6-0.49l0.03-14.9C299.37,458.61,300.07,458.72,300.57,458.82z"/>
<path d="M286.66,459.5l-0.04,16.2c-0.4,0.2-1,0.19-1.4,0.09c-0.17-3.5-0.04-6.9-0.21-10.2c-0.63,3.39-0.86,6.69-1.29,10.19
	c-0.3,0.1-0.5,0-0.9-0.01c-0.37-3.3-0.64-6.81-1.11-10.11c-0.23,3.2-0.16,6.9-0.19,10c-0.3,0.3-0.9,0.09-1.2,0.09
	c-0.15-5.3-0.1-11-0.06-16.3c0.7-0.09,1.6-0.29,2.3-0.08l0.84,7.31l0.2-0.3l0.76-7.09c0.7-0.19,1.4-0.29,2.2-0.18L286.66,459.5z"/>
<path d="M325.02,475.74c-0.5,0.2-1.2,0.09-1.7,0.09c-0.15-5.3-0.1-11.2-0.06-16.3c0.5-0.1,1.2,0.01,1.7,0.11L325.02,475.74z"/>
<path d="M338.45,461.35c0.69,1.01,0.58,2.5,0.57,3.9c-0.5-0.1-1.5,0.29-1.6-0.41c0.01-0.9,0.12-1.9-0.38-2.6
	c-0.6-0.41-0.8,0.29-0.91,0.69c-0.23,3.4-0.16,6.7-0.09,10.1c0.1,0.5-0.01,1.2,0.59,1.41c0.5,0.1,0.7-0.39,0.81-0.69
	c0.21-1.1,0.02-2.1,0.23-3.2c0.4-0.1,1-0.09,1.4,0.01c-0.02,1.8,0.27,4-1.14,5.09c-0.6,0.39-1.5,0.49-2.2,0.18
	c-1.69-1.11-1.47-3.21-1.56-5.11c0.33-3.2-0.94-7.21,1.18-9.59C336.16,460.33,337.76,460.45,338.45,461.35z"/>
<path d="M267.35,460.93l-0.01,0.9c-0.7,0.19-1.4,0.29-2.1,0.38l-0.2,0.4l0.06,4.5c0.5,0.2,1.1,0.01,1.6,0.21l-0.01,1.5l-1.5,0.09
	c-0.11,1.7-0.13,3.6-0.05,5.2c0.7,0.21,1.5,0.11,2.2,0.22c0.2,0.5,0.09,0.9,0.09,1.4c-1.4,0.09-2.7,0.18-4.1,0.06l0.03-15
	c1.2-0.29,2.6-0.38,3.91-0.57L267.35,460.93z"/>
<path d="M351.94,462.77l1.09,13.11c-0.5,0.1-1.1-0.01-1.6-0.01c-0.29-1.1-0.18-2.3-0.47-3.4c-0.3-0.2-0.8-0.11-1.2-0.11l-0.2,0.3
	l-0.33,3.2c-0.4,0.1-0.9,0.09-1.3-0.01c0.24-4.5,0.78-9.09,1.32-13.59c0.8-0.09,1.6,0.11,2.5,0.32L351.94,462.77z"/>
<path d="M253.83,462.92l-0.01,12.8c-0.5,0.1-1.3,0.19-1.7-0.02l-0.05-6c-0.3-0.2-0.7-0.11-1-0.01c-0.32,2-0.04,4-0.25,6.1
	c-0.5,0.1-1.2,0.09-1.7-0.11l0.01-12.9c0.5-0.2,1.1-0.19,1.7-0.19c0.08,1.7,0.07,3.4,0.16,5.1c0.2,0.2,0.7,0.21,1,0.11
	c0.22-1.8,0.03-3.6,0.15-5.4c0.5-0.2,1.1-0.29,1.7-0.29L253.83,462.92z"/>
<path d="M363.72,464.77c0.17,3,0.05,6.2,0.12,9.4c0.6,0.21,1.5,0.11,2.2,0.12c0.2,0.4,0.09,1,0.09,1.5c-1.3,0.19-2.7,0.08-4-0.03
	l-0.1,0l0.1-11.3L363.72,464.77z"/>
<path d="M240.41,465.7c-0.5,0.2-1.3,0.09-1.5,0.59l-0.08,9.5c-0.6,0.1-1.1,0.09-1.7-0.01l-0.12-9.2c-0.5-0.2-1.1,0.29-1.5-0.01
	l0.01-1.2c1.6-0.39,3.21-0.77,4.71-1.06C240.62,464.6,240.41,465.2,240.41,465.7z"/>
<path class="st0" d="M350.87,470.56c-0.3,0.3-0.7,0.09-1,0.09c-0.09-1.7,0.23-3.5,0.45-5.3l0.1,0.3L350.87,470.56z"/>
<path d="M398.93,475.88l-0.2,0.1l-22-0.09l3.43-3.57c-1.39-1.51-3.27-2.93-4.66-4.54C383.48,469.94,391.46,472.41,398.93,475.88z"/>
<path d="M225.99,467.77c-1.41,1.59-3.33,2.87-4.64,4.56l3.47,3.53l-0.4,0.1l-21.8-0.09C210.15,472.54,217.97,469.8,225.99,467.77z"
	/>
</svg>
